<svg width="18" height="18" viewBox="0 0 18 18" fill="none" xmlns="http://www.w3.org/2000/svg">
<path d="M9 4.22833C10.1471 4.22833 11.0769 3.51842 11.0769 2.64271C11.0769 1.76699 10.1471 1.05708 9 1.05708C7.85295 1.05708 6.92308 1.76699 6.92308 2.64271C6.92308 3.51842 7.85295 4.22833 9 4.22833Z" fill="#64DA72"/>
<path d="M5.53846 6.87104V7.29387C5.53846 7.35225 5.60045 7.39958 5.67692 7.39958H12.3231C12.3995 7.39958 12.4615 7.35225 12.4615 7.29387V6.87104C12.4615 5.41392 10.9092 4.22833 9 4.22833C7.09075 4.22833 5.53846 5.41392 5.53846 6.87104Z" fill="#64DA72"/>
<path d="M3.46154 3.17125C4.60859 3.17125 5.53846 2.46134 5.53846 1.58562C5.53846 0.709908 4.60859 0 3.46154 0C2.31449 0 1.38462 0.709908 1.38462 1.58562C1.38462 2.46134 2.31449 3.17125 3.46154 3.17125Z" fill="#64DA72"/>
<path d="M14.5385 3.17125C15.6855 3.17125 16.6154 2.46134 16.6154 1.58562C16.6154 0.709908 15.6855 0 14.5385 0C13.3914 0 12.4615 0.709908 12.4615 1.58562C12.4615 2.46134 13.3914 3.17125 14.5385 3.17125Z" fill="#64DA72"/>
<path d="M6.92308 17.8942C6.92308 17.9664 7.01567 18.0173 7.10532 17.9945L10.9822 17.0079C11.0388 16.9935 11.0769 16.9531 11.0769 16.9076V12.7202L17.6948 8.64464C17.7964 8.58204 17.7384 8.45666 17.6078 8.45666H0.392178C0.261574 8.45666 0.203591 8.58204 0.305244 8.64464L6.92308 12.7202V17.8942Z" fill="#64DA72"/>
<path d="M5.85777 4.07876C5.91892 4.03862 5.9255 3.9673 5.86775 3.92433C5.24455 3.46066 4.39875 3.17125 3.46154 3.17125C1.55229 3.17125 0 4.35684 0 5.81395V6.23679C0 6.29517 0.0619913 6.34249 0.138462 6.34249H4.10398C4.17278 6.34249 4.23092 6.30389 4.24247 6.25212C4.43563 5.38618 5.0204 4.62845 5.85777 4.07876Z" fill="#64DA72"/>
<path d="M13.7575 6.25212C13.7691 6.30389 13.8272 6.34249 13.896 6.34249H17.8615C17.938 6.34249 18 6.29517 18 6.23679V5.81395C18 4.35684 16.4477 3.17125 14.5385 3.17125C13.6012 3.17125 12.7555 3.46066 12.1323 3.92433C12.0745 3.9673 12.0811 4.03862 12.1422 4.07876C12.9796 4.62845 13.5644 5.38618 13.7575 6.25212Z" fill="#64DA72"/>
</svg>
