<svg width="49" height="28" viewBox="0 0 49 28" fill="none" xmlns="http://www.w3.org/2000/svg">
<path fill-rule="evenodd" clip-rule="evenodd" d="M41.8537 3.64069H28.4684C27.3506 3.64069 26.4444 2.8257 26.4444 1.82035C26.4444 0.814996 27.3506 0 28.4684 0H41.8537C45.9712 0 49.0054 3.30301 48.0429 6.73759L42.4875 26.5615C42.2062 27.5653 41.0844 28.1828 39.9625 27.9515C38.8061 27.7129 38.0936 26.6659 38.3836 25.6311L43.9168 5.88656C44.2376 4.7417 43.2262 3.64069 41.8537 3.64069Z" fill="#64DA72"/>
<path d="M11.2927 8.3659C11.633 8.3659 11.9094 8.48442 12.1221 8.72146C12.3348 8.9585 12.4411 9.25479 12.4411 9.61035V22.5659C12.4411 22.9511 12.3135 23.277 12.0583 23.5437C11.8173 23.7955 11.5124 23.9215 11.1438 23.9215C10.9595 23.9215 10.7681 23.8918 10.5696 23.8326C10.3853 23.7585 10.2435 23.6622 10.1443 23.5437L2.33333 13.2222L2.33935 22.677C2.33935 23.0326 2.22593 23.3289 1.99908 23.5659C1.78641 23.8029 1.50286 23.9215 1.14841 23.9215C0.80814 23.9215 0.531671 23.8029 0.319002 23.5659C0.106334 23.3289 0 23.0326 0 22.677V9.72146C0 9.33628 0.120512 9.01776 0.361536 8.7659C0.616738 8.49924 0.928651 8.3659 1.29728 8.3659C1.49577 8.3659 1.70135 8.41035 1.91401 8.49924C2.12668 8.57331 2.28264 8.69183 2.38188 8.85479L10.123 19.2075V9.61035C10.123 9.25479 10.2293 8.9585 10.442 8.72146C10.6547 8.48442 10.9382 8.3659 11.2927 8.3659Z" fill="white"/>
<path d="M16.9359 8.45705H24.0603C24.4289 8.45705 24.7337 8.58298 24.9747 8.83483C25.2299 9.07187 25.3575 9.38298 25.3575 9.76816C25.3575 10.1385 25.2299 10.4422 24.9747 10.6793C24.7337 10.9015 24.4289 11.0126 24.0603 11.0126H18.2969V14.7904H23.1032C23.4719 14.7904 23.7767 14.9163 24.0177 15.1682C24.2729 15.4052 24.4005 15.7163 24.4005 16.1015C24.4005 16.4719 24.2729 16.7756 24.0177 17.0126C23.7767 17.2348 23.4719 17.3459 23.1032 17.3459H18.2969V21.457H24.0603C24.4289 21.457 24.7337 21.5904 24.9747 21.857C25.2299 22.1089 25.3575 22.4052 25.3575 22.7459C25.3575 23.1163 25.2299 23.42 24.9747 23.657C24.7337 23.8941 24.4289 24.0126 24.0603 24.0126H16.9359C16.5672 24.0126 16.2553 23.8867 16.0001 23.6348C15.7591 23.3682 15.6386 23.0422 15.6386 22.657V9.81261C15.6386 9.42742 15.7591 9.1089 16.0001 8.85705C16.2553 8.59038 16.5672 8.45705 16.9359 8.45705Z" fill="white"/>
<path d="M32.8491 23.9215C32.4521 23.9215 32.126 23.7955 31.8708 23.5437C31.6156 23.277 31.488 22.9511 31.488 22.5659V10.9215H34.2527V22.5659C34.2527 22.9511 34.118 23.277 33.8486 23.5437C33.5934 23.7955 33.2603 23.9215 32.8491 23.9215ZM28.1491 10.9215C27.7805 10.9215 27.4686 10.8029 27.2134 10.5659C26.9724 10.3289 26.8519 10.0178 26.8519 9.63257C26.8519 9.24739 26.9724 8.94368 27.2134 8.72146C27.4686 8.48442 27.7805 8.3659 28.1491 8.3659H37.5916C37.9602 8.3659 38.2651 8.48442 38.5061 8.72146C38.7613 8.9585 38.8889 9.26961 38.8889 9.65479C38.8889 10.04 38.7613 10.3511 38.5061 10.5881C38.2651 10.8103 37.9602 10.9215 37.5916 10.9215H28.1491Z" fill="white"/>
</svg>
