<svg width="62" height="36" viewBox="0 0 62 36" fill="none" xmlns="http://www.w3.org/2000/svg">
<path fill-rule="evenodd" clip-rule="evenodd" d="M53.8119 4.68089H36.6022C35.165 4.68089 34 3.63304 34 2.34045C34 1.04785 35.165 0 36.6022 0H53.8119C59.1059 0 63.007 4.24673 61.7695 8.66262L54.6268 34.1505C54.2651 35.4411 52.8228 36.2351 51.3804 35.9376C49.8935 35.6309 48.9775 34.2848 49.3503 32.9543L56.4644 7.56843C56.8769 6.09647 55.5766 4.68089 53.8119 4.68089Z" fill="#64DA72"/>
<path d="M14.5192 10.7562C14.9567 10.7562 15.3121 10.9085 15.5855 11.2133C15.859 11.5181 15.9957 11.899 15.9957 12.3562V29.0133C15.9957 29.5085 15.8316 29.9276 15.5035 30.2705C15.1936 30.5943 14.8017 30.7562 14.3278 30.7562C14.0908 30.7562 13.8447 30.7181 13.5895 30.6419C13.3525 30.5466 13.1702 30.4228 13.0426 30.2705L3 17L3.00774 29.1562C3.00774 29.6133 2.86191 29.9943 2.57025 30.299C2.29682 30.6038 1.93224 30.7562 1.47653 30.7562C1.03904 30.7562 0.683577 30.6038 0.410146 30.299C0.136715 29.9943 0 29.6133 0 29.1562V12.499C0 12.0038 0.154944 11.5943 0.464832 11.2705C0.792949 10.9276 1.19398 10.7562 1.66793 10.7562C1.92313 10.7562 2.18745 10.8133 2.46088 10.9276C2.73431 11.0228 2.93482 11.1752 3.06242 11.3847L13.0153 24.6953V12.3562C13.0153 11.899 13.152 11.5181 13.4254 11.2133C13.6989 10.9085 14.0634 10.7562 14.5192 10.7562Z" fill="black"/>
<path d="M21.7747 10.8734H30.9346C31.4086 10.8734 31.8005 11.0353 32.1104 11.3591C32.4385 11.6638 32.6025 12.0638 32.6025 12.5591C32.6025 13.0353 32.4385 13.4257 32.1104 13.7305C31.8005 14.0162 31.4086 14.1591 30.9346 14.1591H23.5246V19.0162H29.7042C30.1781 19.0162 30.57 19.1781 30.8799 19.5019C31.208 19.8067 31.3721 20.2067 31.3721 20.7019C31.3721 21.1781 31.208 21.5686 30.8799 21.8734C30.57 22.1591 30.1781 22.3019 29.7042 22.3019H23.5246V27.5876H30.9346C31.4086 27.5876 31.8005 27.7591 32.1104 28.1019C32.4385 28.4257 32.6025 28.8067 32.6025 29.2448C32.6025 29.721 32.4385 30.1114 32.1104 30.4162C31.8005 30.721 31.4086 30.8734 30.9346 30.8734H21.7747C21.3007 30.8734 20.8997 30.7114 20.5716 30.3876C20.2617 30.0448 20.1068 29.6257 20.1068 29.1305V12.6162C20.1068 12.121 20.2617 11.7114 20.5716 11.3876C20.8997 11.0448 21.3007 10.8734 21.7747 10.8734Z" fill="black"/>
<path d="M42.2346 30.7562C41.7242 30.7562 41.3049 30.5943 40.9768 30.2705C40.6487 29.9276 40.4846 29.5085 40.4846 29.0133V14.0419H44.0392V29.0133C44.0392 29.5085 43.866 29.9276 43.5197 30.2705C43.1916 30.5943 42.7632 30.7562 42.2346 30.7562ZM36.1917 14.0419C35.7178 14.0419 35.3168 13.8895 34.9887 13.5847C34.6788 13.28 34.5238 12.88 34.5238 12.3847C34.5238 11.8895 34.6788 11.499 34.9887 11.2133C35.3168 10.9085 35.7178 10.7562 36.1917 10.7562H48.3321C48.806 10.7562 49.1979 10.9085 49.5078 11.2133C49.8359 11.5181 50 11.9181 50 12.4133C50 12.9085 49.8359 13.3085 49.5078 13.6133C49.1979 13.899 48.806 14.0419 48.3321 14.0419H36.1917Z" fill="black"/>
</svg>
