<svg width="68" height="67" viewBox="0 0 68 67" fill="none" xmlns="http://www.w3.org/2000/svg">
<path fill-rule="evenodd" clip-rule="evenodd" d="M13.8474 53.6525C11.201 51.0061 9.10169 47.8642 7.66943 44.4065C6.23717 40.9487 5.5 37.2427 5.5 33.5C5.5 29.7573 6.23718 26.0513 7.66944 22.5935C9.09205 19.159 11.1727 16.0363 13.7941 13.401C13.8118 13.3831 13.8296 13.3653 13.8475 13.3474C13.8653 13.3296 13.8831 13.3118 13.901 13.294C16.5363 10.6727 19.659 8.59204 23.0935 7.16943C26.5513 5.73717 30.2573 5 34 5C37.7427 5 41.4487 5.73717 44.9065 7.16943C48.3643 8.60169 51.5061 10.701 54.1525 13.3475C56.799 15.9939 58.8983 19.1357 60.3306 22.5935C61.7628 26.0513 62.5 29.7573 62.5 33.5C62.5 37.2427 61.7628 40.9487 60.3306 44.4065C58.8983 47.8643 56.799 51.0061 54.1525 53.6525C51.5061 56.299 48.3643 58.3983 44.9065 59.8306C41.4487 61.2628 37.7427 62 34 62C30.2573 62 26.5513 61.2628 23.0935 59.8306C19.6357 58.3983 16.4939 56.299 13.8474 53.6525ZM10.3749 9.74914C16.4321 3.72374 24.7812 0 34 0C43.2096 0 51.5513 3.71635 57.6071 9.73121C57.6341 9.75807 57.6611 9.78497 57.6881 9.81192C57.715 9.83888 57.7419 9.86587 57.7688 9.89291C63.7836 15.9487 67.5 24.2904 67.5 33.5C67.5 52.0015 52.5015 67 34 67C15.4985 67 0.5 52.0015 0.5 33.5C0.5 24.2812 4.22374 15.9321 10.2492 9.87486C10.2701 9.85385 10.291 9.83287 10.3119 9.81191C10.3329 9.79096 10.3539 9.77003 10.3749 9.74914Z" fill="#64DA72"/>
</svg>
