<svg width="67" height="67" viewBox="0 0 67 67" fill="none" xmlns="http://www.w3.org/2000/svg">
<path fill-rule="evenodd" clip-rule="evenodd" d="M33.5 5C17.7599 5 5 17.7599 5 33.5C5 49.2401 17.7599 62 33.5 62C49.2401 62 62 49.2401 62 33.5C62 17.7599 49.2401 5 33.5 5ZM0 33.5C0 14.9985 14.9985 0 33.5 0C52.0015 0 67 14.9985 67 33.5C67 52.0015 52.0015 67 33.5 67C14.9985 67 0 52.0015 0 33.5Z" fill="#3B3B3B"/>
<path fill-rule="evenodd" clip-rule="evenodd" d="M31 2.5C31 1.11929 32.1193 2.38419e-07 33.5 0C37.8993 -7.15255e-07 42.2555 0.866502 46.3199 2.55003C50.3843 4.23357 54.0773 6.70116 57.1881 9.81192C60.2988 12.9227 62.7664 16.6157 64.45 20.6801C66.1335 24.7445 67 29.1007 67 33.5C67 34.8807 65.8807 36 64.5 36C63.1193 36 62 34.8807 62 33.5C62 29.7573 61.2628 26.0513 59.8306 22.5935C58.3983 19.1357 56.299 15.9939 53.6525 13.3475C51.0061 10.701 47.8643 8.60169 44.4065 7.16943C40.9487 5.73717 37.2427 5 33.5 5C32.1193 5 31 3.88071 31 2.5Z" fill="#64DA72"/>
</svg>
