<svg width="68" height="67" viewBox="0 0 68 67" fill="none" xmlns="http://www.w3.org/2000/svg">
<path fill-rule="evenodd" clip-rule="evenodd" d="M34 5C18.2599 5 5.5 17.7599 5.5 33.5C5.5 49.2401 18.2599 62 34 62C49.7401 62 62.5 49.2401 62.5 33.5C62.5 17.7599 49.7401 5 34 5ZM0.5 33.5C0.5 14.9985 15.4985 0 34 0C52.5015 0 67.5 14.9985 67.5 33.5C67.5 52.0015 52.5015 67 34 67C15.4985 67 0.5 52.0015 0.5 33.5Z" fill="#3B3B3B"/>
<path fill-rule="evenodd" clip-rule="evenodd" d="M31.5 2.5C31.5 1.11929 32.6193 -2.38419e-07 34 0C42.8848 1.66893e-06 51.4056 3.52946 57.6881 9.81193C63.9705 16.0944 67.5 24.6153 67.5 33.5C67.5 42.3848 63.9705 50.9056 57.6881 57.1881C51.4056 63.4705 42.8848 67 34 67C32.6193 67 31.5 65.8807 31.5 64.5C31.5 63.1193 32.6193 62 34 62C41.5587 62 48.8078 58.9973 54.1525 53.6525C59.4973 48.3078 62.5 41.0587 62.5 33.5C62.5 25.9413 59.4973 18.6922 54.1525 13.3475C48.8078 8.00267 41.5587 5 34 5C32.6193 5 31.5 3.88071 31.5 2.5Z" fill="#64DA72"/>
</svg>
