<svg width="18" height="18" viewBox="0 0 18 18" fill="none" xmlns="http://www.w3.org/2000/svg">
<path d="M13.9897 17.9159L9 14.6561L4.0103 17.9158C3.82904 18.0357 3.59521 18.0266 3.42066 17.8943C3.24661 17.7626 3.16677 17.5336 3.21929 17.3158L4.64681 11.3538L0.188571 7.40749C0.0237588 7.2634 -0.0406123 7.02897 0.025833 6.81554C0.0922784 6.60156 0.276638 6.45155 0.49088 6.43595L6.30974 6.01173L8.51077 0.312109C8.67248 -0.104036 9.32752 -0.104036 9.48923 0.312109L11.6903 6.01173L17.5091 6.43595C17.7234 6.45155 17.9077 6.60156 17.9742 6.81554C18.0406 7.02897 17.9762 7.2634 17.8114 7.40749L13.3532 11.3539L14.7807 17.3159C14.8332 17.5336 14.7534 17.7627 14.5793 17.8944C14.4012 18.0295 14.168 18.0325 13.9897 17.9159Z" fill="#64DA72"/>
</svg>
