<svg width="30" height="49" viewBox="0 0 30 49" fill="none" xmlns="http://www.w3.org/2000/svg">
<path d="M10.078 48.3861C10.7327 48.6575 11.4939 48.4309 11.8763 47.8451L29.2762 21.0325C29.5579 20.5986 29.5749 20.0506 29.32 19.603C29.0651 19.1539 28.578 18.8751 28.0499 18.8751H16.4372L20.756 2.25235C20.9302 1.58082 20.5776 0.887257 19.922 0.613975C19.2707 0.3421 18.5046 0.570007 18.1236 1.15501L0.723849 27.9675C0.442068 28.4015 0.425055 28.9495 0.679962 29.3971C0.934869 29.8462 1.42197 30.125 1.95015 30.125H13.5628L9.24395 46.7477C9.06976 47.4193 9.4223 48.1128 10.078 48.3861Z" fill="#64DA72"/>
</svg>
